<?xml version="1.0" encoding="UTF-8"?>
<svg id="Layer_1" data-name="Layer 1" xmlns="http://www.w3.org/2000/svg" viewBox="0 0 300.34 76.73">
  <defs>
    <style>
      .cls-1, .cls-2 {
        fill: #f26a5c;
      }

      .cls-3 {
        letter-spacing: -.01em;
      }

      .cls-3, .cls-4, .cls-5, .cls-6, .cls-7 {
        fill: #f3e8d9;
      }

      .cls-8 {
        font-family: Montserrat-Black, Montserrat;
        font-size: 47px;
        font-weight: 800;
      }

      .cls-5, .cls-2 {
        stroke-width: 0px;
      }

      .cls-6 {
        letter-spacing: -.03em;
      }

      .cls-7 {
        letter-spacing: 0em;
      }
    </style>
  </defs>
  <g>
    <circle class="cls-5" cx="38.36" cy="38.36" r="38.36" transform="translate(-5.65 70.09) rotate(-80.78)"/>
    <path class="cls-2" d="M56.03,27.44c-4.5-6.44-12.65-9.77-20.72-7.75-8.07,2.02-13.69,8.81-14.62,16.61l35.34-8.86Z"/>
    <path class="cls-2" d="M75.64,29.3l-53.47,13.83,26.74,12.41-2.51-9.71,30.32-7.47c0-3.62-.55-6.84-1.09-9.06Z"/>
    <path class="cls-2" d="M42.82,67.67c-21.19,0-38.36-17.18-38.36-38.36,0-4.29.71-8.4,2.01-12.25C2.38,23.15,0,30.48,0,38.36,0,59.55,17.18,76.73,38.36,76.73c16.9,0,31.24-10.93,36.35-26.11-6.88,10.28-18.6,17.05-31.9,17.05Z"/>
  </g>
  <text class="cls-8" transform="translate(88.51 51.24)"><tspan class="cls-4" x="0" y="0">e</tspan><tspan class="cls-7" x="30.69" y="0">c</tspan><tspan class="cls-4" x="59.36" y="0">o d</tspan><tspan class="cls-3" x="138.46" y="0">e</tspan><tspan class="cls-6" x="168.68" y="0">v</tspan><tspan class="cls-1" x="197.54" y="0">.</tspan></text>
</svg>